:SAMPLES-PER-SECOND 30
:FULLY-SPECIFIED
:DEGREES
401
root  -6.64635 38.9616 21.2272 -170.147 14.6859 -176.437
RightUpLeg  -10.0422 -13.9527 -12.2092
RightLeg  14.5046 -7.11071 -1.87085
RightFoot  3.0425 -2.99314 23.5943
RightToes  -1.74624e-010 0 -3.6325e-017
Spine  14.8895 1.40631 -8.47806
Spine1  11.2906 -1.56005 6.25245
HEad  -19.9902 12.9905 -0.957539
LeftShoulder1  0.42996 1.43772 -13.8306
LeftArm  13.331 5.43153 -57.9473
LeftForeArm  112.203 -76.9346 -125.531
LeftHand  -1.45111 -0.648803 27.6581
RightShoulder  0.640506 -0.282129 12.9606
RightArm  -29.8347 -24.0926 52.0547
RightForeArm  -37.8146 52.2102 16.8793
RightHand  -3.5149 5.85469 -35.4496
LeftUpLeg  -25.3408 -8.86656 15.1891
LeftLeg  21.7416 -5.45787 -2.06626
LeftFoot  -6.34717 0.512263 -10.8283
LeftToes  -5.82109e-011 1.10366e-010 -8.03124e-011
402
root  -7.14421 39.1007 21.4213 -169.812 14.8072 -176.644
RightUpLeg  -10.1947 -15.1168 -11.7518
RightLeg  18.839 -4.85922 -2.07914
RightFoot  3.20436 -3.06421 23.8598
RightToes  -1.74624e-010 0 -3.6325e-017
Spine  15.3122 1.93731 -5.23484
Spine1  11.3129 1.31066 -0.110566
HEad  -18.7114 8.92983 1.73012
LeftShoulder1  0.512841 0.998826 -13.4624
LeftArm  14.8939 5.25057 -57.2898
LeftForeArm  111.946 -76.6205 -126.906
LeftHand  -1.35718 -0.379158 27.0942
RightShoulder  0.529996 -0.447313 10.1079
RightArm  -28.8827 -15.5088 50.7861
RightForeArm  -35.761 52.3963 16.9019
RightHand  -3.84188 6.2932 -37.1648
LeftUpLeg  -25.6515 -8.91269 14.2017
LeftLeg  20.4567 -4.31565 -1.44307
LeftFoot  -4.98256 0.582467 -9.91453
LeftToes  -5.82109e-011 1.10366e-010 -8.03124e-011
403
root  -7.69892 39.0585 21.6687 -170.105 16.3738 -177.125
RightUpLeg  -10.4056 -13.9985 -12.2682
RightLeg  23.4864 -4.00445 -2.12437
RightFoot  2.48771 -2.86391 23.451
RightToes  -1.74624e-010 0 -3.6325e-017
Spine  15.9588 2.1823 -2.75251
Spine1  11.4406 3.6988 -6.19706
HEad  -17.0712 6.89254 3.52555
LeftShoulder1  0.584185 0.647892 -13.4471
LeftArm  15.6233 5.55508 -56.2896
LeftForeArm  113.442 -76.1339 -129.327
LeftHand  -1.37044 -0.408818 27.2123
RightShoulder  0.370825 -0.820606 6.14069
RightArm  -28.6446 -3.20609 49.1062
RightForeArm  -27.4953 53.4368 17.1353
RightHand  -4.03345 6.69602 -37.6838
LeftUpLeg  -25.9306 -7.42295 12.6211
LeftLeg  21.0646 -4.01771 -1.37257
LeftFoot  -4.8392 0.557819 -9.29109
LeftToes  -5.82109e-011 1.10366e-010 -8.03124e-011
404
root  -8.25081 38.8408 21.9763 -170.948 18.7983 -178.036
RightUpLeg  -10.7451 -12.9164 -13.5657
RightLeg  27.9955 -3.30545 -2.12875
RightFoot  1.24086 -2.67778 24.0531
RightToes  -1.74624e-010 0 -3.6325e-017
Spine  16.8018 2.47383 -1.35646
Spine1  11.5649 5.60172 -10.9261
HEad  -15.5491 6.31037 3.96839
LeftShoulder1  0.705152 0.0771371 -13.5899
LeftArm  15.5976 5.90158 -55.6747
LeftForeArm  115.274 -75.7938 -131.07
LeftHand  -1.3618 -0.429044 26.957
RightShoulder  0.215333 -1.31503 1.56964
RightArm  -29.1155 9.92508 46.0489
RightForeArm  -13.85 57.6518 19.2992
RightHand  -3.8782 6.74135 -36.1855
LeftUpLeg  -26.5268 -4.07989 10.3615
LeftLeg  23.3936 -4.82866 -1.94981
LeftFoot  -5.32853 0.468847 -8.30104
LeftToes  -5.82109e-011 1.10366e-010 -8.03124e-011
405
root  -8.72018 38.5124 22.2816 -172.054 20.9693 -179.352
RightUpLeg  -10.8847 -12.1098 -15.2528
RightLeg  31.8733 -2.67414 -2.03254
RightFoot  -0.852097 -2.36613 25.3311
RightToes  -1.74624e-010 0 -3.6325e-017
Spine  17.5729 2.89245 -0.496353
Spine1  11.7301 7.20679 -14.3576
HEad  -14.6866 6.17284 3.67374
LeftShoulder1  0.870322 -0.736637 -13.5435
LeftArm  15.3943 5.49663 -55.8955
LeftForeArm  115.095 -76.025 -130.128
LeftHand  -1.21666 -0.205763 25.0599
RightShoulder  0.0924575 -2.02332 -2.62746
RightArm  -31.361 20.4418 41.2293
RightForeArm  2.71642 65.1242 25.5553
RightHand  -3.3754 6.31587 -32.8595
LeftUpLeg  -27.4737 -0.460413 7.86801
LeftLeg  26.3345 -5.99356 -2.87305
LeftFoot  -6.10463 0.363624 -7.14309
LeftToes  -5.82109e-011 1.10366e-010 -8.03124e-011
406
root  -9.07661 38.2048 22.5024 -173.132 21.7162 179.417
RightUpLeg  -10.0663 -11.7998 -16.5257
RightLeg  34.3164 -2.79324 -2.30108
RightFoot  -3.46381 -1.82224 25.6722
RightToes  -1.74624e-010 0 -3.6325e-017
Spine  17.9766 3.01145 0.410603
Spine1  12.0339 8.18222 -16.5746
HEad  -14.3813 6.18129 3.72566
LeftShoulder1  1.01321 -1.50121 -13.2356
LeftArm  15.1214 4.47797 -56.5809
LeftForeArm  112.526 -76.7752 -126.342
LeftHand  -0.999194 0.0702974 21.7597
RightShoulder  0.0223078 -2.91279 -5.59042
RightArm  -34.8383 27.2044 36.838
RightForeArm  22.4394 72.7588 38.2019
RightHand  -2.893 5.92737 -29.356
LeftUpLeg  -28.3174 1.5791 5.86248
LeftLeg  28.5902 -7.04135 -3.78722
LeftFoot  -6.93469 0.290501 -6.47749
LeftToes  -5.82109e-011 1.10366e-010 -8.03124e-011
407
root  -9.3244 38.0435 22.6346 -174.053 21.0303 178.809
RightUpLeg  -8.11857 -11.9897 -16.7579
RightLeg  35.1337 -4.16386 -3.39179
RightFoot  -5.45175 -1.31919 24.5501
RightToes  -1.74624e-010 0 -3.6325e-017
Spine  17.8898 2.65406 1.07971
Spine1  12.4475 8.15686 -17.1641
HEad  -14.1568 6.53049 4.46065
LeftShoulder1  1.1079 -2.03021 -12.9888
LeftArm  14.5132 3.8114 -56.9942
LeftForeArm  109.439 -77.5209 -121.812
LeftHand  -0.880318 0.099954 19.3564
RightShoulder  -0.00179579 -3.62769 -6.90945
RightArm  -36.1772 31.0481 36.3131
RightForeArm  45.0475 77.3536 56.4716
RightHand  -2.61836 5.74917 -27.0992
LeftUpLeg  -28.4858 1.74246 4.8586
LeftLeg  29.4761 -7.74663 -4.36027
LeftFoot  -7.29541 0.271798 -6.45763
LeftToes  -5.82109e-011 1.10366e-010 -8.03124e-011
408
root  -9.46562 38.0874 22.7426 -174.811 20.2098 178.892
RightUpLeg  -5.91389 -12.2028 -15.8903
RightLeg  34.9141 -5.87605 -4.64083
RightFoot  -6.40102 -1.03844 22.7783
RightToes  -1.74624e-010 0 -3.6325e-017
Spine  17.3642 2.29748 1.02917
Spine1  12.8769 7.53454 -16.1388
HEad  -13.882 7.09266 5.22626
LeftShoulder1  1.16403 -2.29958 -13.0345
LeftArm  13.6435 4.05318 -56.904
LeftForeArm  107.882 -77.9374 -118.947
LeftHand  -0.923401 -0.0607136 19.6581
RightShoulder  -0.00437238 -3.74638 -6.56758
RightArm  -33.1198 32.4621 40.123
RightForeArm  61.5786 78.8981 71.4394
RightHand  -2.43377 5.33765 -26.1885
LeftUpLeg  -27.7084 1.06735 4.87915
LeftLeg  28.8397 -7.94822 -4.36892
LeftFoot  -6.83484 0.312433 -6.88871
LeftToes  -5.82109e-011 1.10366e-010 -8.03124e-011
409
root  -9.50767 38.3219 22.8614 -175.315 20.3916 179.338
RightUpLeg  -4.39017 -12.248 -14.3548
RightLeg  34.1694 -6.10097 -4.68912
RightFoot  -7.05637 -0.869476 21.7242
RightToes  -1.74624e-010 0 -3.6325e-017
Spine  16.4105 2.39715 0.528544
Spine1  13.2611 7.09642 -14.4206
HEad  -13.7862 7.50515 5.26694
LeftShoulder1  1.161 -2.26165 -13.1227
LeftArm  12.8856 5.04582 -56.6999
LeftForeArm  108.179 -78.0573 -118.294
LeftHand  -1.04529 -0.221276 21.5951
RightShoulder  0.0134812 -3.24033 -4.82327
RightArm  -26.7725 31.1155 45.5198
RightForeArm  68.5139 79.2085 80.5966
RightHand  -2.25743 4.71424 -25.7997
LeftUpLeg  -26.0649 0.45807 5.52741
LeftLeg  26.6306 -7.68132 -3.83201
LeftFoot  -5.73953 0.413165 -7.72493
LeftToes  -5.82109e-011 1.10366e-010 -8.03124e-011
